<?xml version="1.0" standalone="no"?>
<!DOCTYPE svg PUBLIC "-//W3C//DTD SVG 20010904//EN"
 "http://www.w3.org/TR/2001/REC-SVG-20010904/DTD/svg10.dtd">
<svg version="1.0" xmlns="http://www.w3.org/2000/svg"
 width="600.000000pt" height="600.000000pt" viewBox="0 0 600.000000 600.000000"
 preserveAspectRatio="xMidYMid meet">
<metadata>
Created by potrace 1.14, written by Peter Selinger 2001-2017
</metadata>
<g transform="translate(0.000000,600.000000) scale(0.100000,-0.100000)"
fill="#000000" stroke="none">
<path d="M2873 5645 c-18 -8 -41 -28 -52 -46 -20 -33 -21 -83 -7 -294 3 -33 7
-107 11 -164 6 -115 20 -153 65 -176 54 -28 108 -17 160 34 16 16 18 94 6 296
-18 289 -15 263 -35 306 -23 47 -93 68 -148 44z"/>
<path d="M3914 5383 c-12 -2 -33 -16 -46 -31 -24 -25 -208 -433 -208 -460 0
-6 -4 -12 -8 -12 -8 0 -9 -24 -4 -77 3 -24 42 -69 69 -77 44 -14 59 -14 93 3
28 13 43 32 72 91 33 65 69 144 73 160 1 3 9 23 19 45 76 170 98 231 92 263
-11 68 -78 110 -152 95z"/>
<path d="M2002 5251 c-58 -30 -82 -88 -58 -145 27 -66 211 -335 236 -347 82
-37 163 3 176 90 5 30 -18 93 -42 119 -7 6 -16 21 -19 32 -3 11 -11 20 -16 20
-5 0 -9 5 -9 11 0 6 -6 16 -12 24 -7 7 -35 49 -63 93 -68 110 -123 139 -193
103z"/>
<path d="M4795 4808 c-16 -9 -130 -99 -195 -155 -8 -7 -27 -23 -42 -35 -14
-13 -46 -39 -70 -58 -113 -90 -138 -136 -112 -200 21 -50 47 -69 98 -74 38 -4
51 0 88 26 36 26 116 91 164 133 7 6 20 17 31 25 205 163 235 206 198 284 -27
57 -107 84 -160 54z"/>
<path d="M2925 4751 c-140 -25 -262 -66 -390 -131 -208 -105 -338 -217 -503
-435 -21 -27 -72 -117 -72 -125 0 -6 -4 -10 -10 -10 -5 0 -10 -5 -10 -10 0 -6
-18 -53 -41 -105 -22 -52 -42 -103 -44 -113 -2 -9 -10 -46 -19 -82 -36 -156
-47 -309 -31 -440 4 -30 8 -69 9 -86 2 -17 6 -35 9 -41 4 -6 9 -25 11 -44 3
-19 12 -65 20 -104 35 -163 39 -367 11 -527 -3 -16 -7 -38 -9 -50 -8 -48 -39
-156 -63 -224 -23 -68 -27 -72 -66 -84 -44 -13 -112 -56 -137 -87 -9 -10 -26
-40 -40 -68 -29 -62 -33 -159 -7 -223 17 -42 17 -45 -1 -70 -27 -39 -37 -64
-50 -127 -18 -85 10 -168 80 -237 45 -45 49 -52 42 -81 -37 -165 57 -334 226
-410 61 -27 115 -50 120 -52 7 -2 45 -19 105 -45 71 -31 99 -43 105 -45 3 0
22 -7 44 -14 61 -21 204 -19 246 3 37 20 103 84 140 136 20 28 27 31 54 25 51
-11 119 -12 150 -2 34 12 121 99 141 142 8 17 20 48 27 69 11 33 19 41 47 48
57 15 160 138 178 212 15 66 4 160 -23 199 -10 15 -9 27 7 63 22 49 115 201
135 222 8 7 14 16 14 20 1 20 161 184 245 251 39 31 72 59 73 64 2 4 8 7 13 7
5 0 30 15 56 34 27 18 70 45 96 60 26 14 53 31 60 36 7 5 37 28 67 50 115 84
267 249 347 375 105 168 168 336 201 545 14 89 7 340 -12 435 -18 88 -58 223
-77 257 -5 10 -9 25 -9 33 0 8 -4 15 -10 15 -5 0 -10 6 -10 13 0 14 -94 182
-113 202 -7 7 -19 23 -27 36 -48 73 -188 210 -292 285 -116 83 -334 187 -438
209 -3 1 -30 6 -60 13 -30 6 -68 14 -85 18 -74 15 -331 12 -430 -5z m20 -251
c-44 -10 -108 -27 -142 -38 -35 -11 -63 -16 -63 -12 0 12 214 68 260 68 14 0
-11 -8 -55 -18z m-216 -63 c-23 -15 -149 -72 -149 -67 0 8 144 80 149 74 2 -2
2 -5 0 -7z m-160 -81 c-2 -2 -24 -15 -49 -30 -30 -18 -36 -20 -20 -6 48 39 64
50 68 45 3 -3 3 -7 1 -9z m-124 -86 c-3 -5 -12 -10 -18 -10 -7 0 -6 4 3 10 19
12 23 12 15 0z m-630 -2367 c-11 -3 -26 -10 -32 -15 -8 -6 -13 -7 -13 -1 0 16
12 23 39 22 21 -1 22 -2 6 -6z m-41 -341 c2 -4 -4 -9 -15 -9 -11 -1 -17 2 -14
8 7 11 22 12 29 1z"/>
<path d="M1543 4569 c-75 -37 -90 -130 -30 -187 50 -48 233 -154 267 -157 80
-5 125 38 125 122 0 42 -4 55 -25 73 -33 30 -158 110 -170 110 -6 0 -10 4 -10
9 0 8 -90 51 -107 51 -4 0 -27 -9 -50 -21z"/>
<path d="M5125 3922 c-3 -3 -13 -7 -23 -8 -9 -2 -44 -8 -77 -13 -33 -6 -73
-13 -90 -16 -16 -3 -41 -7 -55 -10 -14 -3 -40 -7 -59 -10 -19 -3 -46 -13 -61
-22 -97 -57 -60 -211 52 -216 37 -1 125 10 178 23 19 5 69 14 110 20 41 6 89
18 106 26 77 34 91 140 28 195 -21 18 -100 40 -109 31z"/>
<path d="M4702 3169 c-47 -18 -72 -60 -72 -116 1 -73 45 -103 203 -139 4 -1 8
-2 10 -3 1 -2 13 -5 27 -7 14 -3 41 -9 60 -14 112 -30 197 70 145 170 -21 41
-69 63 -180 85 -11 2 -45 11 -75 19 -62 18 -85 19 -118 5z"/>
</g>
</svg>
