<svg width="197" height="163" viewBox="0 0 197 163" fill="none" xmlns="http://www.w3.org/2000/svg">
<path d="M137.258 129.948V144.645C137.258 154.23 130.056 161.998 121.17 161.998H68.3401C59.4545 161.998 52.2522 154.23 52.2522 144.645V18.3533C52.2522 8.76883 59.4545 1 68.3401 1H121.169C130.055 1 137.257 8.76883 137.257 18.3533V52.1369" stroke="#3D6CB4" stroke-miterlimit="10" stroke-linecap="round" stroke-linejoin="round"/>
<path d="M52.2522 18.614V18.3533C52.2522 8.76883 59.4545 1 68.3401 1H121.169C130.055 1 137.257 8.76883 137.257 18.3533V18.614H52.2522Z" stroke="#3D6CB4" stroke-miterlimit="10" stroke-linecap="round" stroke-linejoin="round"/>
<path opacity="0.3" d="M52.0162 18.614V18.3533C52.0162 8.76883 59.2185 1 68.1041 1H120.933C129.819 1 137.021 8.76883 137.021 18.3533V18.614H52.0162Z" fill="#528AC8"/>
<path d="M137.258 144.386V144.647C137.258 154.231 130.056 162 121.17 162H68.3401C59.4545 162 52.2522 154.231 52.2522 144.647V144.386H137.258Z" stroke="#3D6CB4" stroke-miterlimit="10" stroke-linecap="round" stroke-linejoin="round"/>
<path opacity="0.3" d="M137.258 144.386V144.647C137.258 154.231 130.056 162 121.17 162H68.3401C59.4545 162 52.2522 154.231 52.2522 144.647V144.386H137.258Z" fill="#528AC8"/>
<path d="M87.2188 154.138H102.292" stroke="#3D6CB4" stroke-miterlimit="10" stroke-linecap="round" stroke-linejoin="round"/>
<path d="M87.2188 9.80701H102.292" stroke="#3D6CB4" stroke-miterlimit="10" stroke-linecap="round" stroke-linejoin="round"/>
<path d="M9.85718 47.0225V64.0906" stroke="#3D6CB4" stroke-miterlimit="10" stroke-linecap="round" stroke-linejoin="round"/>
<path d="M18.7129 55.5565H1" stroke="#3D6CB4" stroke-miterlimit="10" stroke-linecap="round" stroke-linejoin="round"/>
<path d="M29.2861 88.8724V100.311" stroke="#3D6CB4" stroke-miterlimit="10" stroke-linecap="round" stroke-linejoin="round"/>
<path d="M34.589 94.5909H23.9846" stroke="#3D6CB4" stroke-miterlimit="10" stroke-linecap="round" stroke-linejoin="round"/>
<path d="M189.014 82.0713L194.615 79.4505L188.889 65.2087L182.446 68.2221C180.063 64.8238 177.509 62.2919 174.733 60.2907L177.207 52.8761L163.605 46.9506L161.028 53.948C157.043 53.2395 152.718 53.2809 148.847 54.0554L146.361 47.8768L134.038 53.6413L136.523 59.8199C131.593 63.163 129.715 65.9294 127.47 69.5532L120.602 66.8818L115.111 81.5514L121.876 85.0172C121.332 88.5704 121.23 92.3474 121.903 96.5447L114.949 99.7973L120.676 114.039L126.789 111.179C129.375 115.609 132.609 118.856 136.536 121.687L133.826 128.514L147.31 134.145L150.453 126.709C154.438 127.418 157.567 127.761 163.2 126.163L166.107 133.394L178.431 127.629L175.523 120.399C178.694 117.879 181.708 114.58 183.953 110.958L190.508 113.775L195.842 99.1793L189.472 96.9235C190.241 91.8966 190.246 87.135 189.014 82.0713ZM163.699 111.797C152.753 116.918 140.033 111.498 135.286 99.6915C130.539 87.8849 135.564 74.1645 146.509 69.044C157.455 63.9236 170.175 69.3431 174.922 81.1497C179.669 92.9547 174.645 106.677 163.699 111.797Z" stroke="#3D6CB4" stroke-miterlimit="10" stroke-linecap="round" stroke-linejoin="round"/>
<path opacity="0.3" d="M189.172 82.1985L194.773 79.5777L189.046 65.3359L182.603 68.3493C180.221 64.951 177.667 62.4191 174.891 60.4179L177.364 53.0033L163.763 47.0778L161.185 54.0752C157.2 53.3667 152.876 53.4081 149.004 54.1826L146.519 48.004L134.196 53.7685L136.681 59.9471C131.751 63.2902 129.873 66.0566 127.628 69.6804L120.759 67.009L115.269 81.6786L122.033 85.1444C121.49 88.6976 121.388 92.4746 122.06 96.6719L115.107 99.9245L120.833 114.166L126.947 111.306C129.533 115.737 132.767 118.983 136.694 121.814L133.984 128.641L147.467 134.272L150.611 126.836C154.596 127.545 157.725 127.888 163.358 126.29L166.265 133.521L178.588 127.756L175.681 120.526C178.851 118.006 181.865 114.708 184.11 111.085L190.666 113.903L196 99.3065L189.629 97.0507C190.397 92.0238 190.403 87.2622 189.172 82.1985ZM163.699 111.797C152.753 116.917 140.033 111.498 135.286 99.6914C130.539 87.8848 135.564 74.1644 146.509 69.0439C157.455 63.9235 170.175 69.343 174.922 81.1496C179.669 92.9546 174.645 106.677 163.699 111.797Z" fill="#528AC8"/>
<path d="M63.6428 37.8674H114.824" stroke="#3D6CB4" stroke-miterlimit="10" stroke-linecap="round" stroke-linejoin="round"/>
<path d="M63.6428 54.7361H99.1853" stroke="#3D6CB4" stroke-miterlimit="10" stroke-linecap="round" stroke-linejoin="round"/>
<path d="M174.656 13.1808V30.249" stroke="#3D6CB4" stroke-miterlimit="10" stroke-linecap="round" stroke-linejoin="round"/>
<path d="M183.512 21.7148H165.799" stroke="#3D6CB4" stroke-miterlimit="10" stroke-linecap="round" stroke-linejoin="round"/>
</svg>
