<svg width="164" height="150" viewBox="0 0 164 150" fill="none" xmlns="http://www.w3.org/2000/svg">
<path d="M140.611 143.221L71.5184 143.246C66.363 143.246 62.1452 138.958 62.1452 133.717L62.138 131.206" stroke="#3D6CB4" stroke-miterlimit="10" stroke-linecap="round" stroke-linejoin="round"/>
<path d="M62.144 82.2585V10.5288C62.144 5.28784 66.3618 0.999999 71.5172 0.999999H153.627C158.782 0.999999 163 5.28784 163 10.5288V133.717C163 138.958 158.782 143.246 153.627 143.246H149.639" stroke="#3D6CB4" stroke-miterlimit="10" stroke-linecap="round" stroke-linejoin="round"/>
<path opacity="0.3" d="M62.144 17.1692V10.5288C62.144 5.28784 66.3618 0.999999 71.5172 0.999999H153.627C158.782 0.999999 163 5.28784 163 10.5288V17.1692H62.144Z" fill="#528AC8"/>
<path d="M62.144 17.1692V10.5288C62.144 5.28784 66.3618 0.999999 71.5172 0.999999H153.627C158.782 0.999999 163 5.28784 163 10.5288V17.1692H62.144Z" stroke="#3D6CB4" stroke-miterlimit="10" stroke-linecap="round" stroke-linejoin="round"/>
<path d="M73.3567 35.1092H147.124" stroke="#3D6CB4" stroke-miterlimit="10" stroke-linecap="round" stroke-linejoin="round"/>
<path d="M73.3567 66.5574H124.518" stroke="#3D6CB4" stroke-miterlimit="10" stroke-linecap="round" stroke-linejoin="round"/>
<path d="M73.3567 52.0428H131.657" stroke="#3D6CB4" stroke-miterlimit="10" stroke-linecap="round" stroke-linejoin="round"/>
<path d="M149.642 149H140.613V75.5746L145.128 66.5985L149.642 75.5746V149Z" stroke="#3D6CB4" stroke-miterlimit="10" stroke-linecap="round" stroke-linejoin="round"/>
<path d="M140.613 77.1942H149.642" stroke="#3D6CB4" stroke-miterlimit="10" stroke-linecap="round" stroke-linejoin="round"/>
<path d="M140.613 138.742H149.642" stroke="#3D6CB4" stroke-miterlimit="10" stroke-linecap="round" stroke-linejoin="round"/>
<path d="M140.613 132.264H149.642" stroke="#3D6CB4" stroke-miterlimit="10" stroke-linecap="round" stroke-linejoin="round"/>
<path opacity="0.3" d="M149.641 132.264H140.613V138.742H149.641V132.264Z" fill="#528AC8"/>
<path d="M140.613 77.1942H149.642" stroke="#3D6CB4" stroke-miterlimit="10" stroke-linecap="round" stroke-linejoin="round"/>
<path d="M149.642 149H140.613V75.5746L145.128 66.5985L149.642 75.5746V149Z" stroke="#3D6CB4" stroke-miterlimit="10" stroke-linecap="round" stroke-linejoin="round"/>
<path d="M140.613 138.742H149.642" stroke="#3D6CB4" stroke-miterlimit="10" stroke-linecap="round" stroke-linejoin="round"/>
<path d="M140.613 132.264H149.642" stroke="#3D6CB4" stroke-miterlimit="10" stroke-linecap="round" stroke-linejoin="round"/>
<path opacity="0.3" d="M149.642 77.1941H140.613V75.5746L145.128 66.5985L149.642 75.5746V77.1941Z" fill="#528AC8"/>
<path d="M140.613 77.1942H149.642" stroke="#3D6CB4" stroke-miterlimit="10" stroke-linecap="round" stroke-linejoin="round"/>
<path d="M140.613 138.742H149.642" stroke="#3D6CB4" stroke-miterlimit="10" stroke-linecap="round" stroke-linejoin="round"/>
<path d="M140.613 132.264H149.642" stroke="#3D6CB4" stroke-miterlimit="10" stroke-linecap="round" stroke-linejoin="round"/>
<path d="M42.5384 52.7456V61.7265" stroke="#3D6CB4" stroke-miterlimit="10" stroke-linecap="round" stroke-linejoin="round"/>
<path d="M46.9549 57.2366H38.1218" stroke="#3D6CB4" stroke-miterlimit="10" stroke-linecap="round" stroke-linejoin="round"/>
<path d="M28.5594 16.0347V31.0355" stroke="#3D6CB4" stroke-miterlimit="10" stroke-linecap="round" stroke-linejoin="round"/>
<path d="M35.9374 23.535H21.1814" stroke="#3D6CB4" stroke-miterlimit="10" stroke-linecap="round" stroke-linejoin="round"/>
<path d="M88.623 82.2646H1V131.205H88.623V82.2646Z" stroke="#3D6CB4" stroke-miterlimit="10" stroke-linecap="round" stroke-linejoin="round"/>
<path opacity="0.3" d="M32.8391 92.8953H10.1698V120.473H32.8391V92.8953Z" fill="#528AC8"/>
<path d="M32.8391 92.8953H10.1698V120.473H32.8391V92.8953Z" stroke="#3D6CB4" stroke-miterlimit="10" stroke-linecap="round" stroke-linejoin="round"/>
<path d="M43.6116 94.377H80.4955" stroke="#3D6CB4" stroke-miterlimit="10" stroke-linecap="round" stroke-linejoin="round"/>
<path d="M43.6116 104.053H68.5975" stroke="#3D6CB4" stroke-miterlimit="10" stroke-linecap="round" stroke-linejoin="round"/>
<path d="M46.4778 119.14C47.9609 119.14 49.1632 117.918 49.1632 116.41C49.1632 114.902 47.9609 113.68 46.4778 113.68C44.9947 113.68 43.7924 114.902 43.7924 116.41C43.7924 117.918 44.9947 119.14 46.4778 119.14Z" stroke="#3D6CB4" stroke-miterlimit="10" stroke-linecap="round" stroke-linejoin="round"/>
<path d="M58.7042 119.14C60.1873 119.14 61.3896 117.918 61.3896 116.41C61.3896 114.902 60.1873 113.68 58.7042 113.68C57.2211 113.68 56.0188 114.902 56.0188 116.41C56.0188 117.918 57.2211 119.14 58.7042 119.14Z" stroke="#3D6CB4" stroke-miterlimit="10" stroke-linecap="round" stroke-linejoin="round"/>
<path d="M70.9307 119.14C72.4138 119.14 73.616 117.918 73.616 116.41C73.616 114.902 72.4138 113.68 70.9307 113.68C69.4476 113.68 68.2453 114.902 68.2453 116.41C68.2453 117.918 69.4476 119.14 70.9307 119.14Z" stroke="#3D6CB4" stroke-miterlimit="10" stroke-linecap="round" stroke-linejoin="round"/>
</svg>
