<svg width="67" height="75" viewBox="0 0 67 75" fill="none" xmlns="http://www.w3.org/2000/svg">
<path d="M50.0831 39.8614C53.6892 31.5417 49.3702 21.788 40.4154 19.0501C33.7337 17.0115 26.3301 19.8465 22.7471 25.8484C20.5171 29.5781 20.0931 33.764 21.0745 37.5381C22.1868 41.8589 21.7022 46.4677 19.9141 50.5932L19.6608 51.1776L34.395 57.564L34.6483 56.9796C36.496 52.7166 39.7691 49.3165 43.7574 47.0023C46.492 45.4106 48.7271 42.9899 50.0831 39.8614Z" fill="#FFCF58"/>
<path d="M32.3083 61.1517L18.4003 55.1233C17.3675 54.6757 16.8645 53.4776 17.3265 52.4118C17.7735 51.3805 18.9723 50.8791 20.0394 51.3417L33.9474 57.37C34.9802 57.8176 35.4832 59.0158 35.0213 60.0815C34.5742 61.1129 33.3411 61.5993 32.3083 61.1517Z" fill="#46E6F2"/>
<path d="M29.6662 64.4169L17.7893 59.269C16.8254 58.8512 16.4108 57.7322 16.8131 56.804L16.9025 56.5977C17.3197 55.6351 18.4394 55.222 19.3689 55.6249L31.2457 60.7728C32.2096 61.1906 32.6243 62.3096 32.2219 63.2378L32.1325 63.4441C31.7646 64.3872 30.6301 64.8348 29.6662 64.4169Z" fill="#46E6F2"/>
<path d="M18.4691 60.6254L18.4542 60.6598C17.7836 62.2068 18.4865 63.9817 20.0357 64.6531L24.2356 66.4736C25.7848 67.145 27.5605 66.4446 28.2311 64.8975L28.246 64.8631C28.4546 64.3818 28.2203 63.7902 27.7383 63.5813L19.7516 60.1195C19.2696 59.9106 18.6777 60.1441 18.4691 60.6254Z" fill="#46E6F2"/>
<path d="M49.4779 38.3331C53.084 30.0134 48.7649 20.2597 39.8101 17.5218C33.1285 15.4832 25.7248 18.3181 22.1419 24.3201C19.9118 28.0498 19.4879 32.2357 20.4692 36.0097C21.5816 40.3306 21.097 44.9394 19.3088 49.0649L19.0555 49.6493L33.7897 56.0357L34.043 55.4513C35.8908 51.1883 39.1638 47.7882 43.1521 45.4739C45.8867 43.8823 48.1368 41.4272 49.4779 38.3331Z" stroke="#231F20" stroke-width="3" stroke-miterlimit="10" stroke-linecap="round" stroke-linejoin="round"/>
<path d="M29.0758 62.8542L17.199 57.7063C16.235 57.2885 15.8204 56.1695 16.2227 55.2413L16.3121 55.035C16.7294 54.0724 17.849 53.6592 18.7785 54.0621L30.6553 59.2101C31.6193 59.6279 32.0339 60.7468 31.6316 61.6751L31.5422 61.8813C31.1249 62.844 30.0397 63.272 29.0758 62.8542Z" stroke="#231F20" stroke-width="3" stroke-miterlimit="10" stroke-linecap="round" stroke-linejoin="round"/>
<path d="M17.8443 59.0478L17.8294 59.0822C17.1588 60.6292 17.8617 62.404 19.4109 63.0755L23.6108 64.8959C25.16 65.5674 26.9357 64.8669 27.6063 63.3199L27.6212 63.2855C27.8298 62.8042 27.5955 62.2126 27.1136 62.0037L19.1268 58.5419C18.6448 58.333 18.0529 58.5665 17.8443 59.0478Z" stroke="#231F20" stroke-width="3" stroke-miterlimit="10" stroke-linecap="round" stroke-linejoin="round"/>
<path d="M26.6054 25.6066C27.2578 26.8779 29.55 27.0065 31.7251 25.8939C33.9001 24.7813 35.1344 22.8488 34.482 21.5774C33.8295 20.3061 31.5373 20.1775 29.3623 21.2901C27.1872 22.4027 25.9529 24.3352 26.6054 25.6066Z" fill="white"/>
<path d="M35.2029 41.1708L26.5418 52.5674L28.9718 38.47" stroke="white" stroke-width="3" stroke-miterlimit="10" stroke-linecap="round" stroke-linejoin="round"/>
<path d="M27.1293 35.8336C28.5408 36.4454 28.0341 37.6143 29.4112 38.2111C30.8226 38.8229 31.3293 37.654 32.7063 38.2509C34.1177 38.8627 33.6111 40.0316 34.9881 40.6284C36.3996 41.2402 36.9062 40.0713 38.2833 40.6682" stroke="white" stroke-width="3" stroke-miterlimit="10" stroke-linecap="round" stroke-linejoin="round"/>
<path d="M43.0226 14.5444L45.3621 9.14697" stroke="#231F20" stroke-width="3" stroke-miterlimit="10" stroke-linecap="round" stroke-linejoin="round"/>
<path d="M52.076 19.9797L56.6064 16.2261" stroke="#231F20" stroke-width="3" stroke-miterlimit="10" stroke-linecap="round" stroke-linejoin="round"/>
<path d="M56.2774 28.2122L60.4373 27.4833" stroke="#231F20" stroke-width="3" stroke-miterlimit="10" stroke-linecap="round" stroke-linejoin="round"/>
<path d="M55.3549 36.7558L58.1501 37.4773" stroke="#231F20" stroke-width="3" stroke-miterlimit="10" stroke-linecap="round" stroke-linejoin="round"/>
<path d="M32.8664 11.6535L32.5084 5.78101" stroke="#231F20" stroke-width="3" stroke-miterlimit="10" stroke-linecap="round" stroke-linejoin="round"/>
<path d="M23.9861 14.2158L21.6739 10.6816" stroke="#231F20" stroke-width="3" stroke-miterlimit="10" stroke-linecap="round" stroke-linejoin="round"/>
<path d="M18.3818 20.7301L15.9442 19.1835" stroke="#231F20" stroke-width="3" stroke-miterlimit="10" stroke-linecap="round" stroke-linejoin="round"/>
<path d="M31.6835 59.574L17.7755 53.5457C16.7428 53.0981 16.2397 51.8999 16.7017 50.8342C17.1487 49.8028 18.3475 49.3015 19.4147 49.764L33.3226 55.7924C34.3554 56.24 34.8584 57.4381 34.3965 58.5039C33.9345 59.5696 32.7163 60.0217 31.6835 59.574Z" stroke="#231F20" stroke-width="3" stroke-miterlimit="10" stroke-linecap="round" stroke-linejoin="round"/>
</svg>
