<svg width="199" height="163" viewBox="0 0 199 163" fill="none" xmlns="http://www.w3.org/2000/svg">
<path d="M107.426 143.345C101.499 145.538 94.9457 146.775 88.3524 146.775C55.4667 146.775 28.808 117.233 28.808 80.7909C28.808 44.3489 55.4667 14.8072 88.3524 14.8072C119.681 14.8072 145.357 41.9374 147.719 75.9824" stroke="#3D6CB4" stroke-miterlimit="10" stroke-linecap="round" stroke-linejoin="round"/>
<path opacity="0.3" d="M88.2169 146.77C88.2631 146.77 88.3063 146.773 88.3525 146.773V146.674C88.3078 146.706 88.2631 146.741 88.2169 146.77Z" fill="#528AC8"/>
<path opacity="0.3" d="M88.3525 14.9063V14.8072C88.3063 14.8072 88.2631 14.8104 88.2169 14.8104C88.2631 14.8407 88.3078 14.8759 88.3525 14.9063Z" fill="#528AC8"/>
<path opacity="0.3" d="M54.6304 80.7902C54.6304 52.3288 68.7471 27.4071 88.2068 14.8112C55.3889 14.8991 28.8095 44.404 28.8095 80.7902C28.8095 117.178 55.3889 146.681 88.2068 146.769C68.7413 134.175 54.6304 109.256 54.6304 80.7902Z" fill="#528AC8"/>
<path d="M88.2126 146.775C68.7457 134.18 54.6304 109.26 54.6304 80.7909C54.6304 52.3264 68.75 27.4031 88.2126 14.8072V146.775Z" stroke="#3D6CB4" stroke-miterlimit="10" stroke-linecap="round" stroke-linejoin="round"/>
<path d="M121.678 72.9125C119.234 47.9061 105.786 26.1806 88.2126 14.8072V146.775C92.7769 143.821 97.2777 140.025 101.164 135.83" stroke="#3D6CB4" stroke-miterlimit="10" stroke-linecap="round" stroke-linejoin="round"/>
<path d="M131.653 35.395C127.122 44.5598 109.456 51.3947 88.3525 51.3947C67.3151 51.3947 49.6926 44.6014 45.0952 35.4781" stroke="#3D6CB4" stroke-miterlimit="10" stroke-linecap="round" stroke-linejoin="round"/>
<path d="M45.5062 126.602C50.6689 117.861 67.8962 111.437 88.3525 111.437C90.3094 111.437 92.2375 111.496 94.1281 111.609" stroke="#3D6CB4" stroke-miterlimit="10" stroke-linecap="round" stroke-linejoin="round"/>
<path d="M107.101 81.4174L28.8297 81.3983" stroke="#3D6CB4" stroke-miterlimit="10" stroke-linecap="round" stroke-linejoin="round"/>
<path d="M197.09 159.11C196.24 160.571 194.921 161.507 193.486 161.852C192.051 162.196 190.501 161.95 189.183 161.009L158.69 139.249C158.652 139.222 158.616 139.197 158.574 139.154C153.57 145.437 146.789 150.075 138.836 151.983C119.023 156.739 99.4869 142.797 95.1952 120.841C90.9064 98.8842 103.486 77.2353 123.3 72.4795C143.113 67.7237 162.65 81.6651 166.941 103.621C168.637 112.298 167.701 120.917 164.718 128.469C164.788 128.506 164.844 128.544 164.899 128.584L195.374 150.33C198.029 152.227 198.8 156.168 197.09 159.11Z" stroke="#3D6CB4" stroke-miterlimit="10" stroke-linecap="round" stroke-linejoin="round"/>
<path opacity="0.3" d="M137.019 142.667C152.194 139.024 161.83 122.44 158.543 105.624C155.256 88.8091 140.29 78.1304 125.116 81.7729C109.942 85.4154 100.305 102 103.592 118.815C106.879 135.63 121.845 146.309 137.019 142.667Z" fill="#528AC8"/>
<path d="M137.019 142.667C152.194 139.024 161.83 122.44 158.543 105.624C155.256 88.8091 140.29 78.1304 125.116 81.7729C109.942 85.4154 100.305 102 103.592 118.815C106.879 135.63 121.845 146.309 137.019 142.667Z" stroke="#3D6CB4" stroke-miterlimit="10" stroke-linecap="round" stroke-linejoin="round"/>
<path d="M8.93588 109.826V127.414" stroke="#3D6CB4" stroke-miterlimit="10" stroke-linecap="round" stroke-linejoin="round"/>
<path d="M16.8718 118.62H1" stroke="#3D6CB4" stroke-miterlimit="10" stroke-linecap="round" stroke-linejoin="round"/>
<path d="M40.8251 146.962V157.491" stroke="#3D6CB4" stroke-miterlimit="10" stroke-linecap="round" stroke-linejoin="round"/>
<path d="M45.5754 152.227H36.0734" stroke="#3D6CB4" stroke-miterlimit="10" stroke-linecap="round" stroke-linejoin="round"/>
<path d="M29.2551 0.999999V18.5882" stroke="#3D6CB4" stroke-miterlimit="10" stroke-linecap="round" stroke-linejoin="round"/>
<path d="M37.191 9.79413H21.3192" stroke="#3D6CB4" stroke-miterlimit="10" stroke-linecap="round" stroke-linejoin="round"/>
</svg>
