<svg width="208" height="158" viewBox="0 0 208 158" fill="none" xmlns="http://www.w3.org/2000/svg">
<path d="M39.8156 145.079C38.3866 142.873 37.4965 140.042 37.4965 136.943V37.2299C37.4965 30.2116 41.9085 24.5217 47.3507 24.5217H144.491" stroke="#3D6CB4" stroke-miterlimit="10" stroke-linecap="round" stroke-linejoin="round"/>
<path d="M188.936 74.078V136.943C188.936 140.055 188.092 142.869 186.653 145.079" stroke="#3D6CB4" stroke-miterlimit="10" stroke-linecap="round" stroke-linejoin="round"/>
<path d="M183.156 84.7994V124.719C183.156 131.737 178.744 137.427 173.302 137.427H53.1323C47.6901 137.427 43.278 131.737 43.278 124.719V43.7703C43.278 36.752 47.6901 31.0621 53.1323 31.0621H145.195" stroke="#3D6CB4" stroke-miterlimit="10" stroke-linecap="round" stroke-linejoin="round"/>
<path d="M200.257 145.079H26.1775C23.7139 145.079 21.7162 147.655 21.7162 150.832V151.247C21.7162 154.424 23.7139 157 26.1775 157H200.255C202.719 157 204.717 154.424 204.717 151.247V150.832C204.718 147.655 202.72 145.079 200.257 145.079Z" stroke="#3D6CB4" stroke-miterlimit="10" stroke-linecap="round" stroke-linejoin="round"/>
<path opacity="0.3" d="M141.614 151.041H84.8206C83.5941 151.041 82.5893 149.747 82.5893 148.164V147.956C82.5893 146.375 83.5926 145.079 84.8206 145.079H141.614C142.84 145.079 143.845 146.373 143.845 147.956V148.164C143.843 149.746 142.84 151.041 141.614 151.041Z" fill="#528AC8"/>
<path d="M141.614 151.041H84.8206C83.5941 151.041 82.5893 149.747 82.5893 148.164V147.956C82.5893 146.375 83.5926 145.079 84.8206 145.079H141.614C142.84 145.079 143.845 146.373 143.845 147.956V148.164C143.843 149.746 142.84 151.041 141.614 151.041Z" stroke="#3D6CB4" stroke-miterlimit="10" stroke-linecap="round" stroke-linejoin="round"/>
<path d="M58.6325 50.4642H110.732" stroke="#3D6CB4" stroke-miterlimit="10" stroke-linecap="round" stroke-linejoin="round"/>
<path d="M58.6325 69.6608H118.175" stroke="#3D6CB4" stroke-miterlimit="10" stroke-linecap="round" stroke-linejoin="round"/>
<path d="M8.22842 19.9432V38.5871" stroke="#3D6CB4" stroke-miterlimit="10" stroke-linecap="round" stroke-linejoin="round"/>
<path d="M15.4569 29.2653H1" stroke="#3D6CB4" stroke-miterlimit="10" stroke-linecap="round" stroke-linejoin="round"/>
<path d="M20.0833 61.4714V72.6343" stroke="#3D6CB4" stroke-miterlimit="10" stroke-linecap="round" stroke-linejoin="round"/>
<path d="M24.4105 67.0519H15.756" stroke="#3D6CB4" stroke-miterlimit="10" stroke-linecap="round" stroke-linejoin="round"/>
<path d="M202.19 40.4626L207 38.7791L203.922 24.1608L198.39 26.0978C196.835 22.4561 195.047 19.6246 193.022 17.273L195.825 10.487L185.483 2.71043L182.641 9.07796C179.499 7.79179 176.002 7.17749 172.791 7.34258L171.456 0.999997L160.877 4.70496L162.212 11.0475C157.867 13.5297 156.05 15.9197 153.844 19.0775L148.586 15.4609L142.559 28.7968L147.645 33.1641C146.821 36.5139 146.328 40.144 146.414 44.3001L140.444 46.3906L143.522 61.0088L148.771 59.1698C150.378 63.8384 152.638 67.4628 155.502 70.7896L152.571 76.9728L162.849 84.448L166.196 77.7426C169.338 79.0288 171.828 79.8331 176.55 79.1401L178.113 86.5616L188.692 82.8566L187.129 75.4352C189.963 73.4809 192.756 70.7512 194.962 67.5914L199.952 71.3021L205.845 58.0122L200.945 54.8717C202.113 50.1358 202.636 45.5402 202.19 40.4626ZM178.515 65.3435C169.119 68.6338 159.433 61.4792 156.882 49.3622C154.33 37.2453 159.878 24.754 169.274 21.4617C178.67 18.1714 188.356 25.326 190.909 37.443C193.46 49.5619 187.911 62.0532 178.515 65.3435Z" stroke="#3D6CB4" stroke-miterlimit="10" stroke-linecap="round" stroke-linejoin="round"/>
<path opacity="0.3" d="M202.19 40.4626L207 38.7791L203.922 24.1608L198.39 26.0977C196.835 22.4561 195.047 19.6246 193.022 17.273L195.825 10.487L185.483 2.71043L182.641 9.07796C179.499 7.79179 176.002 7.17749 172.791 7.34258L171.456 0.999997L160.877 4.70496L162.212 11.0475C157.867 13.5297 156.05 15.9197 153.844 19.0775L148.586 15.4609L142.559 28.7968L147.645 33.1641C146.821 36.5139 146.328 40.144 146.414 44.3001L140.444 46.3906L143.522 61.0088L148.771 59.1698C150.378 63.8384 152.638 67.4628 155.502 70.7896L152.571 76.9728L162.849 84.448L166.196 77.7426C169.338 79.0288 171.828 79.8331 176.55 79.1401L178.113 86.5616L188.692 82.8566L187.129 75.4352C189.963 73.4809 192.756 70.7512 194.962 67.5914L199.952 71.3021L205.845 58.0122L200.945 54.8717C202.113 50.1358 202.636 45.5402 202.19 40.4626ZM178.515 65.3435C169.119 68.6338 159.433 61.4792 156.882 49.3622C154.33 37.2453 159.878 24.754 169.274 21.4617C178.67 18.1714 188.356 25.326 190.909 37.443C193.46 49.5619 187.911 62.0532 178.515 65.3435Z" fill="#528AC8"/>
<path d="M58.6325 86.9379H139.015" stroke="#3D6CB4" stroke-miterlimit="10" stroke-linecap="round" stroke-linejoin="round"/>
<path opacity="0.3" d="M165.233 122.077H61.2017C59.2234 122.077 57.6039 119.991 57.6039 117.438V107.49C57.6039 104.939 59.2234 102.85 61.2017 102.85H165.233C167.211 102.85 168.83 104.937 168.83 107.49V117.438C168.83 119.991 167.211 122.077 165.233 122.077Z" fill="#528AC8"/>
</svg>
