<svg aria-hidden="true" style="position: absolute; width: 0; height: 0; overflow: hidden;" version="1.1" xmlns="http://www.w3.org/2000/svg" xmlns:xlink="http://www.w3.org/1999/xlink">
<defs>
<symbol id="logo" viewBox="0 0 29 32">
<path fill="#ffcf58" style="fill: var(--color1, #ffcf58)" d="M21.369 17.008c1.539-3.55-0.304-7.711-4.125-8.88-2.851-0.87-6.010 0.34-7.538 2.901-0.951 1.591-1.132 3.377-0.714 4.988 0.475 1.844 0.268 3.81-0.495 5.57l-0.108 0.249 6.287 2.725 0.108-0.249c0.788-1.819 2.185-3.27 3.887-4.257 1.167-0.679 2.12-1.712 2.699-3.047z"></path>
<path fill="#46e6f2" style="fill: var(--color2, #46e6f2)" d="M13.785 26.091l-5.934-2.572c-0.441-0.191-0.655-0.702-0.458-1.157 0.191-0.44 0.702-0.654 1.157-0.457l5.934 2.572c0.441 0.191 0.655 0.702 0.458 1.157-0.191 0.44-0.717 0.648-1.158 0.457z"></path>
<path fill="#46e6f2" style="fill: var(--color2, #46e6f2)" d="M12.658 27.485l-5.067-2.196c-0.411-0.178-0.588-0.656-0.417-1.052l0.038-0.088c0.178-0.411 0.656-0.587 1.052-0.415l5.067 2.196c0.411 0.178 0.588 0.656 0.416 1.052l-0.038 0.088c-0.157 0.402-0.641 0.593-1.052 0.415z"></path>
<path fill="#46e6f2" style="fill: var(--color2, #46e6f2)" d="M7.88 25.867l-0.006 0.015c-0.286 0.66 0.014 1.417 0.675 1.704l1.792 0.777c0.661 0.286 1.419-0.012 1.705-0.672l0.006-0.015c0.089-0.205-0.011-0.458-0.217-0.547l-3.408-1.477c-0.206-0.089-0.458 0.011-0.547 0.216z"></path>
<path fill="none" stroke="#231f20" style="stroke: var(--color3, #231f20)" stroke-linejoin="round" stroke-linecap="round" stroke-miterlimit="10" stroke-width="1.28" d="M21.111 16.355c1.539-3.55-0.304-7.711-4.125-8.88-2.851-0.87-6.010 0.34-7.538 2.901-0.951 1.591-1.132 3.377-0.714 4.988 0.475 1.844 0.268 3.81-0.495 5.57l-0.108 0.249 6.287 2.725 0.108-0.249c0.788-1.819 2.185-3.27 3.887-4.257 1.167-0.679 2.127-1.727 2.699-3.047z"></path>
<path fill="none" stroke="#231f20" style="stroke: var(--color3, #231f20)" stroke-linejoin="round" stroke-linecap="round" stroke-miterlimit="10" stroke-width="1.28" d="M12.406 26.818l-5.067-2.196c-0.411-0.178-0.588-0.656-0.417-1.052l0.038-0.088c0.178-0.411 0.656-0.587 1.052-0.415l5.067 2.196c0.411 0.178 0.588 0.656 0.417 1.052l-0.038 0.088c-0.178 0.411-0.641 0.593-1.052 0.415z"></path>
<path fill="none" stroke="#231f20" style="stroke: var(--color3, #231f20)" stroke-linejoin="round" stroke-linecap="round" stroke-miterlimit="10" stroke-width="1.28" d="M7.614 25.194l-0.006 0.015c-0.286 0.66 0.014 1.417 0.675 1.704l1.792 0.777c0.661 0.287 1.419-0.012 1.705-0.672l0.006-0.015c0.089-0.205-0.011-0.458-0.217-0.547l-3.408-1.477c-0.206-0.089-0.458 0.011-0.547 0.216z"></path>
<path fill="#fff" style="fill: var(--color4, #fff)" d="M11.352 10.925c0.278 0.542 1.256 0.597 2.184 0.123s1.455-1.299 1.176-1.842c-0.278-0.542-1.256-0.597-2.184-0.123s-1.455 1.299-1.176 1.842z"></path>
<path fill="none" stroke="#fff" style="stroke: var(--color4, #fff)" stroke-linejoin="round" stroke-linecap="round" stroke-miterlimit="10" stroke-width="1.28" d="M15.020 17.566l-3.695 4.863 1.037-6.015"></path>
<path fill="none" stroke="#fff" style="stroke: var(--color4, #fff)" stroke-linejoin="round" stroke-linecap="round" stroke-miterlimit="10" stroke-width="1.28" d="M11.575 15.289c0.602 0.261 0.386 0.76 0.974 1.014 0.602 0.261 0.818-0.238 1.406 0.017 0.602 0.261 0.386 0.76 0.974 1.014 0.602 0.261 0.818-0.238 1.406 0.017"></path>
<path fill="none" stroke="#231f20" style="stroke: var(--color3, #231f20)" stroke-linejoin="round" stroke-linecap="round" stroke-miterlimit="10" stroke-width="1.28" d="M18.356 6.206l0.998-2.303"></path>
<path fill="none" stroke="#231f20" style="stroke: var(--color3, #231f20)" stroke-linejoin="round" stroke-linecap="round" stroke-miterlimit="10" stroke-width="1.28" d="M22.219 8.525l1.933-1.602"></path>
<path fill="none" stroke="#231f20" style="stroke: var(--color3, #231f20)" stroke-linejoin="round" stroke-linecap="round" stroke-miterlimit="10" stroke-width="1.28" d="M24.012 12.037l1.775-0.311"></path>
<path fill="none" stroke="#231f20" style="stroke: var(--color3, #231f20)" stroke-linejoin="round" stroke-linecap="round" stroke-miterlimit="10" stroke-width="1.28" d="M23.618 15.682l1.193 0.308"></path>
<path fill="none" stroke="#231f20" style="stroke: var(--color3, #231f20)" stroke-linejoin="round" stroke-linecap="round" stroke-miterlimit="10" stroke-width="1.28" d="M14.023 4.972l-0.153-2.506"></path>
<path fill="none" stroke="#231f20" style="stroke: var(--color3, #231f20)" stroke-linejoin="round" stroke-linecap="round" stroke-miterlimit="10" stroke-width="1.28" d="M10.234 6.065l-0.987-1.508"></path>
<path fill="none" stroke="#231f20" style="stroke: var(--color3, #231f20)" stroke-linejoin="round" stroke-linecap="round" stroke-miterlimit="10" stroke-width="1.28" d="M7.843 8.845l-1.040-0.66"></path>
<path fill="none" stroke="#231f20" style="stroke: var(--color3, #231f20)" stroke-linejoin="round" stroke-linecap="round" stroke-miterlimit="10" stroke-width="1.28" d="M13.518 25.418l-5.934-2.572c-0.441-0.191-0.655-0.702-0.458-1.157 0.191-0.44 0.702-0.654 1.158-0.457l5.934 2.572c0.441 0.191 0.655 0.702 0.458 1.157s-0.717 0.648-1.158 0.457z"></path>
</symbol>
<symbol id="web" viewBox="0 0 42 32">
<path d="M28.681 30.591h-11.502c-0.248 0-0.452-0.262-0.452-0.583v-0.042c0-0.32 0.203-0.583 0.452-0.583h11.502c0.248 0 0.452 0.262 0.452 0.583v0.042c-0 0.32-0.204 0.583-0.452 0.583z"></path>
<path d="M40.95 8.195l0.974-0.341-0.623-2.961-1.12 0.392c-0.315-0.738-0.677-1.311-1.087-1.787l0.568-1.374-2.095-1.575-0.576 1.29c-0.636-0.26-1.345-0.385-1.995-0.351l-0.27-1.285-2.143 0.75 0.27 1.285c-0.88 0.503-1.248 0.987-1.695 1.626l-1.065-0.732-1.221 2.701 1.030 0.885c-0.167 0.678-0.267 1.414-0.249 2.255l-1.209 0.423 0.623 2.961 1.063-0.372c0.325 0.946 0.783 1.68 1.363 2.353l-0.594 1.252 2.082 1.514 0.678-1.358c0.636 0.261 1.141 0.423 2.097 0.283l0.317 1.503 2.143-0.75-0.317-1.503c0.574-0.396 1.14-0.949 1.586-1.589l1.011 0.752 1.194-2.692-0.992-0.636c0.237-0.959 0.342-1.89 0.252-2.918zM36.155 13.234c-1.903 0.666-3.865-0.783-4.381-3.237s0.607-4.984 2.51-5.651c1.903-0.666 3.865 0.783 4.382 3.237s-0.607 4.984-2.51 5.651z"></path>
<path d="M33.465 24.724h-21.070c-0.401 0-0.729-0.422-0.729-0.94v-2.015c0-0.517 0.328-0.94 0.729-0.94h21.070c0.401 0 0.728 0.423 0.728 0.94v2.015c0 0.517-0.328 0.94-0.728 0.94z"></path>
</symbol>
<symbol id="branding" viewBox="0 0 35 32">
<path d="M13.257 3.663v-1.417c0-1.118 0.9-2.033 2-2.033h17.517c1.1 0 2 0.915 2 2.033v1.417h-21.516z"></path>
<path d="M31.923 28.216h-1.926v1.382h1.926v-1.382z"></path>
<path d="M31.924 16.468h-1.926v-0.346l0.963-1.915 0.963 1.915v0.346z"></path>
<path d="M7.006 19.818h-4.836v5.883h4.836v-5.883z"></path>
</symbol>
<symbol id="app" viewBox="0 0 39 32">
<path d="M10.212 3.654v-0.051c0-1.882 1.414-3.407 3.158-3.407h10.371c1.744 0 3.158 1.525 3.158 3.407v0.051h-16.688z"></path>
<path d="M26.946 28.346v0.051c0 1.882-1.414 3.407-3.158 3.407h-10.371c-1.744 0-3.158-1.525-3.158-3.407v-0.051h16.688z"></path>
<path d="M37.138 16.137l1.1-0.514-1.124-2.796-1.265 0.592c-0.468-0.667-0.969-1.164-1.514-1.557l0.486-1.456-2.67-1.163-0.506 1.374c-0.782-0.139-1.631-0.131-2.391 0.021l-0.488-1.213-2.419 1.132 0.488 1.213c-0.968 0.656-1.337 1.199-1.777 1.911l-1.349-0.524-1.078 2.88 1.328 0.68c-0.107 0.698-0.127 1.439 0.005 2.263l-1.365 0.639 1.124 2.796 1.2-0.561c0.508 0.87 1.143 1.507 1.914 2.063l-0.532 1.34 2.647 1.105 0.617-1.46c0.782 0.139 1.397 0.207 2.502-0.107l0.571 1.42 2.419-1.132-0.571-1.419c0.622-0.495 1.214-1.142 1.655-1.853l1.287 0.553 1.047-2.866-1.251-0.443c0.151-0.987 0.152-1.922-0.090-2.916zM32.137 21.948c-2.149 1.005-4.646-0.059-5.578-2.377s0.055-5.011 2.203-6.017c2.149-1.005 4.646 0.059 5.578 2.377s-0.054 5.011-2.203 6.017z"></path>
</symbol>
<symbol id="seo" viewBox="0 0 39 32">
<path d="M17.319 28.814c0.009 0 0.018 0.001 0.027 0.001v-0.019c-0.009 0.006-0.018 0.013-0.027 0.019z"></path>
<path d="M17.345 2.926v-0.019c-0.009 0-0.018 0.001-0.027 0.001 0.009 0.006 0.018 0.013 0.027 0.019z"></path>
<path d="M10.725 15.861c0-5.588 2.771-10.48 6.592-12.953-6.443 0.017-11.661 5.81-11.661 12.953s5.218 12.936 11.661 12.953c-3.821-2.472-6.592-7.364-6.592-12.953z"></path>
<path d="M26.899 28.008c2.979-0.715 4.871-3.971 4.226-7.272s-3.583-5.398-6.562-4.682-4.871 3.971-4.226 7.272c0.645 3.301 3.583 5.398 6.562 4.683z"></path>
</symbol>
</defs>
</svg>
